<svg width="current" height="current" viewBox="0 0 100 100" fill="none" xmlns="http://www.w3.org/2000/svg">
<path fill-rule="evenodd" clip-rule="evenodd" d="M50.1001 45.7002C60.6484 45.7002 69.2002 36.1416 69.2002 24.3496C69.2002 12.5586 60.6484 3 50.1001 3C39.5513 3 31 12.5586 31 24.3496C31 36.1416 39.5513 45.7002 50.1001 45.7002ZM50 38.5C56.6274 38.5 62 32.1201 62 24.25C62 16.3799 56.6274 10 50 10C43.3726 10 38 16.3799 38 24.25C38 32.1201 43.3726 38.5 50 38.5Z" fill="black"/>
<path d="M7.30383 0C6.70784 0 6.13626 0.236757 5.71483 0.658187C5.2934 1.07962 5.05664 1.6512 5.05664 2.24719V97.7528C5.05664 98.9939 6.06274 100 7.30383 100H10.3737C11.6147 100 12.6208 98.9939 12.6208 97.7528V21.4703L46.6906 98.6602C47.05 99.4746 47.8563 100 48.7465 100H51.8163C52.7064 100 53.5127 99.4746 53.8721 98.6602L87.9419 21.4703V97.7528C87.9419 98.9939 88.948 100 90.1891 100H93.2589C94.5 100 95.5061 98.9939 95.5061 97.7528V2.24719C95.5061 1.0061 94.5 0 93.2589 0H90.5728C89.6822 0 88.8757 0.525915 88.5165 1.34084L50.2814 88.0872L12.0462 1.34084C11.687 0.525915 10.8805 0 9.98993 0H7.30383Z" fill="black"/>
<path d="M97.7528 70.787C98.9939 70.787 100 69.7809 100 68.5399V65.1691C100 63.928 98.9939 62.9219 97.7528 62.9219L2.24719 62.9219C1.0061 62.9219 0 63.928 0 65.1691V68.5399C0 69.7809 1.0061 70.787 2.24719 70.787L97.7528 70.787Z" fill="black"/>
</svg>
